# xmcd
#
# Track frame offsets:
#	150
#	14924
#	30285
#	45430
#	59245
#	74816
#	86962
#	103464
#	117519
#	133136
#	147434
#	162434
#	176508
#	198107
#	213084
#	231884
#	247310
#	259035
#
# Disc length: 3654 seconds
#
# Revision: 0
# Processed by: cddbd v1.4PL0 Copyright (c) Steve Scherf et al.
# Submitted via: dBpowerAMP V4.0
#
DISCID=1f0e4412
DTITLE=Edith Piaf - Best Recordings 1
DYEAR=1900
DGENRE=Chanson
TTITLE0=L'accordeoniste
TTITLE1=Les Momes De La Cloche
TTITLE2=J'ai Danse Avec L'Amour
TTITLE3=Un Jeune Homme Chantait
TTITLE4=Le Vagabond
TTITLE5=Y A Pas D'printemps
TTITLE6=Mon Apero
TTITLE7=La Java De Cezigue
TTITLE8=Escale
TTITLE9=Tu Es Partout
TTITLE10=Correqu E Reguyer
TTITLE11=Le Brun Et Le Blond
TTITLE12=Histoire de Coeur
TTITLE13=Je N'en Connais Pas La Fin
TTITLE14=Le Disque Use
TTITLE15=Browning
TTITLE16=C'est Toi Les Plus Fort
TTITLE17=C'est Lui Que Mon Coeur A Choisi
EXTD=
EXTT0=
EXTT1=
EXTT2=
EXTT3=
EXTT4=
EXTT5=
EXTT6=
EXTT7=
EXTT8=
EXTT9=
EXTT10=
EXTT11=
EXTT12=
EXTT13=
EXTT14=
EXTT15=
EXTT16=
EXTT17=
PLAYORDER=
